HIERARCHY
ROOT Bip001_Pelvis
{
  OFFSET 0.641812 93.1052 -5.31185
  CHANNELS 6 Xposition Yposition Zposition Zrotation Xrotation Yrotation
  JOINT Bip001_Spine
  {
    OFFSET 1.44608e-005 10.4157 -0.0118244
    CHANNELS 3 Zrotation Xrotation Yrotation
    JOINT Bip001_L_Thigh
    {
      OFFSET 11.2582 -10.4157 0.0118432
      CHANNELS 3 Zrotation Xrotation Yrotation
      JOINT Bip001_L_Calf
      {
        OFFSET -0.720717 -44.8687 0.366937
        CHANNELS 3 Zrotation Xrotation Yrotation
        JOINT Bip001_L_Foot
        {
          OFFSET -0.664439 -41.3745 -3.62995
          CHANNELS 3 Zrotation Xrotation Yrotation
          JOINT Bip001_L_Toe0
          {
            OFFSET 0.0541047 -10.4146 13.4033
            CHANNELS 3 Zrotation Xrotation Yrotation
            End Site
            {
              OFFSET -1.04503e-005 0 7.70137
            }
          }
        }
      }
    }
    JOINT Bip001_R_Thigh
    {
      OFFSET -11.2582 -10.4156 0.0118122
      CHANNELS 3 Zrotation Xrotation Yrotation
      JOINT Bip001_R_Calf
      {
        OFFSET 0.72059 -44.8687 0.36676
        CHANNELS 3 Zrotation Xrotation Yrotation
        JOINT Bip001_R_Foot
        {
          OFFSET 0.664321 -41.3745 -3.62979
          CHANNELS 3 Zrotation Xrotation Yrotation
          JOINT Bip001_R_Toe0
          {
            OFFSET -0.05417 -10.4146 13.4033
            CHANNELS 3 Zrotation Xrotation Yrotation
            End Site
            {
              OFFSET -1.04873e-005 0 7.70137
            }
          }
        }
      }
    }
    JOINT Bip001_Spine1
    {
      OFFSET 1.90638e-005 14.8539 1.10727
      CHANNELS 3 Zrotation Xrotation Yrotation
      JOINT Bip001_Spine2
      {
        OFFSET 2.28934e-005 14.7848 -1.7233
        CHANNELS 3 Zrotation Xrotation Yrotation
        JOINT Bip001_Neck
        {
          OFFSET 2.24514e-005 15.6905 -0.498826
          CHANNELS 3 Zrotation Xrotation Yrotation
          JOINT Bip001_L_Clavicle
          {
            OFFSET 6.17691 -0.000591152 0.00852867
            CHANNELS 3 Zrotation Xrotation Yrotation
            JOINT Bip001_L_UpperArm
            {
              OFFSET 11.773 -0.0611878 0.00197697
              CHANNELS 3 Zrotation Xrotation Yrotation
              JOINT Bip001_L_Forearm
              {
                OFFSET 26.4515 0.0817567 -2.1958
                CHANNELS 3 Zrotation Xrotation Yrotation
                JOINT Bip001_L_Hand
                {
                  OFFSET 32.8679 0.156744 1.67111
                  CHANNELS 3 Zrotation Xrotation Yrotation
                  JOINT Bip001_L_Finger0
                  {
                    OFFSET 6.1627 -2.25226 6.01671
                    CHANNELS 3 Zrotation Xrotation Yrotation
                    End Site
                    {
                      OFFSET 4.305 -1.46663 0.618145
                    }
                  }
                  JOINT Bip001_L_Finger1
                  {
                    OFFSET 11.2958 -0.718374 -0.201962
                    CHANNELS 3 Zrotation Xrotation Yrotation
                    End Site
                    {
                      OFFSET 6.31955 -0.405163 -0.0802299
                    }
                  }
                }
              }
            }
          }
          JOINT Bip001_R_Clavicle
          {
            OFFSET -6.17691 -0.000574027 0.00851165
            CHANNELS 3 Zrotation Xrotation Yrotation
            JOINT Bip001_R_UpperArm
            {
              OFFSET -11.773 -0.0611516 0.00194365
              CHANNELS 3 Zrotation Xrotation Yrotation
              JOINT Bip001_R_Forearm
              {
                OFFSET -26.4514 0.0822335 -2.19736
                CHANNELS 3 Zrotation Xrotation Yrotation
                JOINT Bip001_R_Hand
                {
                  OFFSET -32.8679 0.156816 1.67144
                  CHANNELS 3 Zrotation Xrotation Yrotation
                  JOINT Bip001_R_Finger0
                  {
                    OFFSET -6.16272 -2.25224 6.01669
                    CHANNELS 3 Zrotation Xrotation Yrotation
                    End Site
                    {
                      OFFSET -4.30501 -1.46661 0.618133
                    }
                  }
                  JOINT Bip001_R_Finger1
                  {
                    OFFSET -11.2958 -0.718344 -0.201994
                    CHANNELS 3 Zrotation Xrotation Yrotation
                    End Site
                    {
                      OFFSET -6.31955 -0.405146 -0.0802474
                    }
                  }
                }
              }
            }
          }
          JOINT Bip001_Head
          {
            OFFSET 1.11782e-005 11.4912 2.09908
            CHANNELS 3 Zrotation Xrotation Yrotation
            End Site
            {
              OFFSET 2.95144e-005 21.2823 -2.83069e-005
            }
          }
        }
      }
    }
  }
}
MOTION
Frames:	11
Frame Time:	0.0333333
1.57477 92.8717 -5.29098 0.733137 -6.282 0.0290005 -0.383118 4.50166 1.31766 -3.14774 -8.31598 -10.9884 0.155623 24.2522 -0.206538 -0.106801 -11.9377 8.35704 5.7827e-008 -2.12205e-007 -1.06834e-007 -1.25436 -11.6453 1.39662 -0.25125 25.0414 -0.225717 0.154278 -7.52293 -3.05953 -9.80299e-008 -4.25095e-007 -1.69646e-007 0.0791662 8.94899 2.42751 0.0839222 8.95066 2.42221 4.38768 0.410945 13.1455 -28.7218 9.36161 -18.4229 -43.5422 25.651 -4.25016 -5.49156 4.57596 -76.2737 -18.3799 22.9213 12.4217 1.32417e-031 1.59028e-015 -4.77083e-015 -6.62086e-032 1.59028e-015 2.38542e-015 17.8331 -4.31131 -15.3027 55.2784 28.7442 -2.3598 5.44479 4.1751 72.5842 8.64484 23.05 -4.77776 9.54166e-015 3.18055e-015 -1.59028e-015 9.54166e-015 0 -0 -8.51014 -22.3995 21.4773 
1.58172 92.8709 -5.31379 0.734117 -6.282 0.00333543 -0.383118 4.50166 1.31766 -3.13618 -8.31819 -10.9084 0.155539 24.2308 -0.206504 -0.141233 -11.8872 8.22767 5.7827e-008 -2.12205e-007 -1.06834e-007 -1.27346 -11.6792 1.39679 -0.25125 25.0414 -0.225717 0.158039 -7.50499 -3.03807 -9.80299e-008 -4.25095e-007 -1.69646e-007 0.0748527 8.94881 2.45524 0.0797673 8.95048 2.44891 4.39869 0.347024 13.1454 -28.7083 9.41776 -18.3957 -43.5492 25.5603 -4.2479 -5.48806 4.58032 -76.3171 -18.5457 23.0602 12.5317 -3.18055e-015 -3.18055e-015 7.95139e-016 3.18055e-015 -1.59028e-015 7.95139e-016 17.8703 -4.25841 -15.3232 55.2768 28.7116 -2.35907 5.44479 4.1751 72.5842 8.70089 23.1761 -4.86617 -3.18055e-015 -3.18055e-015 -0 -6.36111e-015 -1.59028e-015 -0 -8.53866 -22.3995 21.4773 
1.5852 92.8712 -5.32502 0.748224 -6.29702 0.0176048 -0.383118 4.50166 1.31766 -3.1306 -8.31021 -10.8586 0.155491 24.2187 -0.206484 -0.128353 -11.8847 8.20322 5.7827e-008 -2.12205e-007 -1.06834e-007 -1.29364 -11.6691 1.3802 -0.25125 25.0414 -0.225717 0.1598 -7.488 -3.03144 -9.80299e-008 -4.25095e-007 -1.69646e-007 0.0720543 8.97014 2.46737 0.0769623 8.97184 2.46109 4.39815 0.28146 13.1453 -28.6953 9.47389 -18.3662 -43.5557 25.4672 -4.24736 -5.48388 4.58557 -76.3693 -18.7734 23.1729 12.7036 3.18055e-015 1.59028e-015 1.59028e-015 3.18055e-015 0 1.59028e-015 17.901 -4.20146 -15.3359 55.2903 28.6792 -2.35834 5.44479 4.1751 72.5842 8.74429 23.3167 -4.93078 3.18055e-015 -1.59028e-015 4.77083e-015 3.18055e-015 1.59028e-015 4.77083e-015 -8.5354 -22.4036 21.478 
1.5852 92.8712 -5.33028 0.76896 -6.31086 0.0567732 -0.383118 4.50166 1.31766 -3.13782 -8.30047 -10.8437 0.155433 24.2041 -0.20646 -0.116252 -11.8864 8.17858 5.7827e-008 -2.12205e-007 -1.06834e-007 -1.32345 -11.651 1.33283 -0.25125 25.0414 -0.225717 0.160761 -7.48078 -3.02698 -9.80299e-008 -4.25095e-007 -1.69646e-007 0.0704194 8.9912 2.47209 0.075191 8.99286 2.4667 4.38631 0.225071 13.1453 -28.6744 9.51884 -18.3399 -43.5982 25.3646 -4.24694 -5.48133 4.58875 -76.4012 -18.9713 23.3142 12.8933 2.20695e-031 3.18055e-015 -3.97569e-015 -3.18055e-015 3.18056e-015 -7.95139e-016 17.9209 -4.15083 -15.3425 55.3167 28.6361 -2.35737 5.43801 4.17722 72.5847 8.8052 23.4354 -4.98865 -3.18055e-015 4.77083e-015 -3.18055e-015 -6.36111e-015 3.18056e-015 3.18055e-015 -8.51164 -22.4393 21.4557 
1.58373 92.8678 -5.34057 0.779454 -6.30877 0.0777811 -0.383118 4.50166 1.31766 -3.13514 -8.31792 -10.7837 0.15545 24.2084 -0.206467 -0.126723 -11.8725 8.05536 5.7827e-008 -2.12205e-007 -1.06834e-007 -1.33811 -11.6692 1.31018 -0.25115 25.0644 -0.22576 0.160232 -7.50965 -3.01946 -9.80299e-008 -4.25095e-007 -1.69646e-007 0.0696713 9.00298 2.48041 0.0734009 9.00463 2.47493 4.35866 0.175524 13.1452 -28.6372 9.55297 -18.3308 -43.6698 25.3001 -4.25375 -5.48062 4.58961 -76.41 -19.0562 23.5542 13.0535 -3.18055e-015 6.36111e-015 1.03368e-014 -3.18055e-015 3.18056e-015 7.15625e-015 17.9369 -4.10381 -15.3466 55.3605 28.6428 -2.35752 5.43688 4.17889 72.6019 8.83858 23.5321 -5.04257 3.18055e-015 -7.95139e-015 -1.59028e-015 3.18055e-015 -7.95139e-015 -0 -8.49065 -22.4936 21.4219 
1.58435 92.8606 -5.35469 0.782926 -6.29689 0.0866328 -0.38253 4.5023 1.31901 -3.1318 -8.35583 -10.7186 0.155541 24.2314 -0.206505 -0.138041 -11.8656 7.93818 5.7827e-008 -2.12205e-007 -1.06834e-007 -1.34676 -11.711 1.28474 -0.251006 25.0975 -0.225821 0.161717 -7.51809 -3.00478 -9.80299e-008 -4.25095e-007 -1.69646e-007 0.0679079 9.00745 2.49698 0.0707102 9.0091 2.49086 4.32225 0.135079 13.1385 -28.5997 9.57878 -18.32 -43.6826 25.2951 -4.26638 -5.47955 4.59098 -76.4233 -19.0667 23.8293 13.1574 -6.36111e-015 -4.77083e-015 -9.54166e-015 -6.36111e-015 -3.18056e-015 -1.11319e-014 17.9503 -4.06363 -15.349 55.4213 28.704 -2.38455 5.43564 4.18039 72.6164 8.84143 23.6593 -5.10499 3.18055e-015 3.18055e-015 -0 -0 0 3.18055e-015 -8.4878 -22.5358 21.3878 
1.587 92.8596 -5.36901 0.785399 -6.27443 0.104812 -0.382406 4.50309 1.32269 -3.1367 -8.40017 -10.72 0.15567 24.264 -0.206558 -0.112696 -11.9053 8.00598 5.7827e-008 -2.12205e-007 -1.06834e-007 -1.35549 -11.7525 1.24879 -0.250922 25.1169 -0.225856 0.164346 -7.52559 -2.98179 -9.80299e-008 -4.25095e-007 -1.69646e-007 0.0673353 9.00885 2.50671 0.0691017 9.01049 2.50073 4.29053 0.112149 13.1298 -28.5791 9.59186 -18.3109 -43.6729 25.3189 -4.27402 -5.47717 4.59399 -76.4531 -19.1064 24.0529 13.2326 -0 -4.77083e-015 -0 -0 -4.77083e-015 -0 17.9591 -4.03865 -15.3452 55.4771 28.7882 -2.41976 5.43531 4.1814 72.6281 8.87137 23.8224 -5.17801 -3.18055e-015 -3.18055e-015 -0 3.18055e-015 -3.18056e-015 -0 -8.48696 -22.5989 21.3427 
1.58726 92.8607 -5.38249 0.78825 -6.24219 0.136758 -0.382432 4.50398 1.3257 -3.13433 -8.4536 -10.738 0.155788 24.294 -0.206606 -0.0999827 -11.9184 8.04425 5.7827e-008 -2.12205e-007 -1.06834e-007 -1.35764 -11.7932 1.22677 -0.250877 25.1271 -0.225875 0.16379 -7.53672 -2.98164 -9.80299e-008 -4.25095e-007 -1.69646e-007 0.0670387 9.0075 2.51571 0.0677773 9.00914 2.50954 4.26457 0.124992 13.1128 -28.5649 9.57287 -18.3113 -43.658 25.3648 -4.28183 -5.47647 4.59484 -76.4649 -19.1622 24.1798 13.2818 -7.94503e-031 3.18055e-015 1.43125e-014 -7.50364e-031 3.18056e-015 1.35174e-014 17.9598 -4.04471 -15.3202 55.5172 28.8807 -2.46973 5.43341 4.18364 72.6495 8.91441 23.9919 -5.26334 3.18055e-015 -6.36111e-015 -6.36111e-015 -6.62086e-031 -7.95139e-015 -4.77083e-015 -8.47891 -22.6825 21.2981 
1.58202 92.8603 -5.39972 0.790447 -6.21551 0.164421 -0.382625 4.50494 1.329 -3.12733 -8.50051 -10.7497 0.155841 24.3073 -0.206628 -0.129649 -11.879 7.94345 5.7827e-008 -2.12205e-007 -1.06834e-007 -1.34915 -11.8302 1.2209 -0.250669 25.1316 -0.226328 0.160479 -7.53885 -3.00598 -9.80299e-008 -4.25095e-007 -1.69646e-007 0.0672149 9.00378 2.52294 0.0667456 9.00544 2.51715 4.24351 0.175854 13.0934 -28.5548 9.52448 -18.3319 -43.6376 25.3776 -4.28982 -5.47752 4.59678 -76.4863 -19.3298 24.2356 13.3801 -3.18055e-015 4.77083e-015 -9.54166e-015 -6.36111e-015 -1.59028e-015 -1.03368e-014 17.9516 -4.08455 -15.2745 55.5524 28.9823 -2.5365 5.43025 4.18793 72.6925 8.94439 24.1555 -5.38289 0 0 -0 0 3.18056e-015 -0 -8.48411 -22.7137 21.2685 
1.56908 92.8595 -5.42919 0.794631 -6.18308 0.204061 -0.382936 4.50592 1.33274 -3.12858 -8.56718 -10.8049 0.155955 24.336 -0.206675 -0.163675 -11.8654 7.87037 5.7827e-008 -2.12205e-007 -1.06834e-007 -1.32625 -11.8745 1.23888 -0.250451 25.1337 -0.226824 0.154732 -7.52169 -3.05657 -9.80299e-008 -4.25095e-007 -1.69646e-007 0.0683251 8.99482 2.52661 0.0665071 8.9965 2.52114 4.2232 0.227846 13.0838 -28.5519 9.47536 -18.3613 -43.6002 25.3942 -4.31258 -5.47806 4.59962 -76.5207 -19.5326 24.2291 13.5161 -6.36111e-015 -3.18055e-015 2.38542e-015 -6.36111e-015 -1.59028e-015 3.97569e-015 17.9409 -4.12781 -15.2322 55.5832 29.0929 -2.60917 5.4262 4.19339 72.7475 8.9827 24.302 -5.48703 -3.18055e-015 -1.59028e-015 -2.38542e-015 -3.18055e-015 -1.59028e-015 -3.97569e-015 -8.5125 -22.6591 21.2536 
1.56277 92.8631 -5.45674 0.800914 -6.14881 0.248317 -0.383239 4.50687 1.33607 -3.14249 -8.62863 -10.8691 0.156023 24.3533 -0.206703 -0.152817 -11.8916 7.92887 5.7827e-008 -2.12205e-007 -1.06834e-007 -1.32711 -11.9189 1.2296 -0.250389 25.1331 -0.226974 0.153808 -7.49739 -3.07346 -9.80299e-008 -4.25095e-007 -1.69646e-007 0.06984 8.98609 2.52889 0.069314 8.9878 2.52387 4.20952 0.261937 13.0805 -28.5578 9.44518 -18.383 -43.5397 25.3984 -4.32134 -5.47826 4.60413 -76.5736 -19.7202 24.2178 13.6256 -6.62086e-032 4.77083e-015 7.95139e-016 3.18055e-015 3.18056e-015 5.56597e-015 17.9291 -4.15471 -15.2024 55.594 29.1745 -2.64603 5.42406 4.19691 72.784 9.06297 24.427 -5.55195 3.18055e-015 1.59028e-015 2.38542e-015 -6.62086e-032 1.59028e-015 2.38542e-015 -8.54237 -22.5987 21.2407 
